ffmpeg started on 2025-05-29 at 15:42:44
Report written to "D:\Convert\FFMetrics\reports\ssim_report-6.txt"
Log level: 32
Command line:
ffmpeg -hide_banner -nostdin -i "G:\\\xc0\xed\xe8\xec\xe5\\\xce\xed\xe3\xee\xe8\xed\xe3\xe8\\!_36_\xce\xf1\xe5\xed\xfc_2024\\JamClub\\\xd0\xe0\xed\xec\xe0 1_2\\[JamClub] Ranma 1_2 - 02 [1080p]_HEVC.mkv" -i "G:\\\xc0\xed\xe8\xec\xe5\\\xce\xed\xe3\xee\xe8\xed\xe3\xe8\\!_36_\xce\xf1\xe5\xed\xfc_2024\\JamClub\\\xd0\xe0\xed\xec\xe0 1_2\\[JamClub] Ranma 1_2 - 02 [1080p].mp4" -lavfi "[0:v]settb=AVTB,setpts=PTS-STARTPTS,format=pix_fmts=yuv420p10,fps=24000/1001,scale=1920:1080:flags=bicubic[main];[1:v]settb=AVTB,setpts=PTS-STARTPTS,format=pix_fmts=yuv420p,fps=24000/1001,scale=1920:1080:flags=bicubic[ref];[main][ref]ssim=eof_action=endall:stats_file='D\\:/Convert/FFMetrics/logs/ssim_logfile-6.txt'" -f null -
Input #0, matroska,webm, from 'G:\Аниме\Онгоинги\!_36_Осень_2024\JamClub\Ранма 1_2\[JamClub] Ranma 1_2 - 02 [1080p]_HEVC.mkv':
  Metadata:
    COMPATIBLE_BRANDS: isomiso2avc1mp41
    MAJOR_BRAND     : isom
    MINOR_VERSION   : 512
    ENCODER         : Lavf61.7.100
  Duration: 00:24:54.47, start: -0.001000, bitrate: 1977 kb/s
  Stream #0:0: Video: hevc (Main 10), yuv420p10le(tv, bt709, progressive), 1920x1080 [SAR 1:1 DAR 16:9], 23.98 fps, 23.98 tbr, 1k tbn (default)
      Metadata:
        HANDLER_NAME    : VideoHandler
        VENDOR_ID       : [0][0][0][0]
        ENCODER         : Lavc61.19.100 libx265
        BPS             : 1800918
        DURATION        : 00:24:44.274708333
        NUMBER_OF_FRAMES: 35587
        NUMBER_OF_BYTES : 334132062
        _STATISTICS_WRITING_APP: mkvpropedit v66.0.0 ('Josie') 64-bit
        _STATISTICS_WRITING_DATE_UTC: 2025-05-29 06:43:31
        _STATISTICS_TAGS: BPS DURATION NUMBER_OF_FRAMES NUMBER_OF_BYTES
  Stream #0:1(eng): Audio: aac (LC), 48000 Hz, stereo, fltp (default)
      Metadata:
        HANDLER_NAME    : SoundHandler
        VENDOR_ID       : [0][0][0][0]
        ENCODER         : Lavc61.19.100 aac
        BPS             : 185155
        DURATION        : 00:24:54.424000000
        NUMBER_OF_FRAMES: 70052
        NUMBER_OF_BYTES : 34587616
        _STATISTICS_WRITING_APP: mkvpropedit v66.0.0 ('Josie') 64-bit
        _STATISTICS_WRITING_DATE_UTC: 2025-05-29 06:43:31
        _STATISTICS_TAGS: BPS DURATION NUMBER_OF_FRAMES NUMBER_OF_BYTES
Input #1, mov,mp4,m4a,3gp,3g2,mj2, from 'G:\Аниме\Онгоинги\!_36_Осень_2024\JamClub\Ранма 1_2\[JamClub] Ranma 1_2 - 02 [1080p].mp4':
  Metadata:
    major_brand     : isom
    minor_version   : 512
    compatible_brands: isomiso2avc1mp41
    encoder         : Lavf60.16.100
  Duration: 00:24:54.44, start: 0.000000, bitrate: 4589 kb/s
  Stream #1:0[0x1](und): Video: h264 (High) (avc1 / 0x31637661), yuv420p(progressive), 1920x1080 [SAR 1:1 DAR 16:9], 4421 kb/s, 23.98 fps, 23.98 tbr, 90k tbn (default)
      Metadata:
        handler_name    : VideoHandler
        vendor_id       : [0][0][0][0]
  Stream #1:1[0x2](eng): Audio: aac (LC) (mp4a / 0x6134706D), 48000 Hz, stereo, fltp, 191 kb/s (default)
      Metadata:
        handler_name    : SoundHandler
        vendor_id       : [0][0][0][0]
Stream mapping:
  Stream #0:0 (hevc) -> settb:default
  Stream #1:0 (h264) -> settb:default
  ssim:default -> Stream #0:0 (wrapped_avframe)
  Stream #0:1 -> #0:1 (aac (native) -> pcm_s16le (native))
Output #0, null, to 'pipe:':
  Metadata:
    COMPATIBLE_BRANDS: isomiso2avc1mp41
    MAJOR_BRAND     : isom
    MINOR_VERSION   : 512
    encoder         : Lavf61.7.100
  Stream #0:0: Video: wrapped_avframe, yuv420p10le(tv, bt709, progressive), 1920x1080 [SAR 1:1 DAR 16:9], q=2-31, 200 kb/s, 23.98 fps, 23.98 tbn
      Metadata:
        encoder         : Lavc61.19.100 wrapped_avframe
  Stream #0:1(eng): Audio: pcm_s16le, 48000 Hz, stereo, s16, 1536 kb/s (default)
      Metadata:
        HANDLER_NAME    : SoundHandler
        VENDOR_ID       : [0][0][0][0]
        _STATISTICS_TAGS: BPS DURATION NUMBER_OF_FRAMES NUMBER_OF_BYTES
        BPS             : 185155
        DURATION        : 00:24:54.424000000
        NUMBER_OF_FRAMES: 70052
        NUMBER_OF_BYTES : 34587616
        _STATISTICS_WRITING_APP: mkvpropedit v66.0.0 ('Josie') 64-bit
        _STATISTICS_WRITING_DATE_UTC: 2025-05-29 06:43:31
        encoder         : Lavc61.19.100 pcm_s16le
frame=  109 fps=0.0 q=-0.0 size=N/A time=00:00:04.54 bitrate=N/A speed=8.73x    frame=  267 fps=260 q=-0.0 size=N/A time=00:00:11.13 bitrate=N/A speed=10.8x    frame=  448 fps=289 q=-0.0 size=N/A time=00:00:18.68 bitrate=N/A speed=  12x    frame=  714 fps=346 q=-0.0 size=N/A time=00:00:29.77 bitrate=N/A speed=14.4x    frame=  961 fps=374 q=-0.0 size=N/A time=00:00:40.08 bitrate=N/A speed=15.6x    frame= 1182 fps=382 q=-0.0 size=N/A time=00:00:49.29 bitrate=N/A speed=15.9x    frame= 1419 fps=393 q=-0.0 size=N/A time=00:00:59.18 bitrate=N/A speed=16.4x    frame= 1653 fps=400 q=-0.0 size=N/A time=00:01:08.94 bitrate=N/A speed=16.7x    frame= 1835 fps=396 q=-0.0 size=N/A time=00:01:16.53 bitrate=N/A speed=16.5x    frame= 1991 fps=386 q=-0.0 size=N/A time=00:01:23.04 bitrate=N/A speed=16.1x    frame= 2185 fps=386 q=-0.0 size=N/A time=00:01:31.13 bitrate=N/A speed=16.1x    frame= 2360 fps=381 q=-0.0 size=N/A time=00:01:38.43 bitrate=N/A speed=15.9x    frame= 2536 fps=378 q=-0.0 size=N/A time=00:01:45.77 bitrate=N/A speed=15.8x    frame= 2703 fps=374 q=-0.0 size=N/A time=00:01:52.73 bitrate=N/A speed=15.6x    frame= 2866 fps=371 q=-0.0 size=N/A time=00:01:59.53 bitrate=N/A speed=15.5x    frame= 3031 fps=367 q=-0.0 size=N/A time=00:02:06.41 bitrate=N/A speed=15.3x    frame= 3182 fps=363 q=-0.0 size=N/A time=00:02:12.71 bitrate=N/A speed=15.2x    frame= 3319 fps=358 q=-0.0 size=N/A time=00:02:18.42 bitrate=N/A speed=14.9x    frame= 3483 fps=356 q=-0.0 size=N/A time=00:02:25.27 bitrate=N/A speed=14.8x    frame= 3638 fps=353 q=-0.0 size=N/A time=00:02:31.73 bitrate=N/A speed=14.7x    frame= 3887 fps=359 q=-0.0 size=N/A time=00:02:42.12 bitrate=N/A speed=  15x    frame= 4151 fps=366 q=-0.0 size=N/A time=00:02:53.13 bitrate=N/A speed=15.3x    frame= 4400 fps=371 q=-0.0 size=N/A time=00:03:03.51 bitrate=N/A speed=15.5x    frame= 4618 fps=373 q=-0.0 size=N/A time=00:03:12.60 bitrate=N/A speed=15.6x    frame= 4819 fps=374 q=-0.0 size=N/A time=00:03:20.99 bitrate=N/A speed=15.6x    frame= 5055 fps=377 q=-0.0 size=N/A time=00:03:30.83 bitrate=N/A speed=15.7x    frame= 5269 fps=379 q=-0.0 size=N/A time=00:03:39.76 bitrate=N/A speed=15.8x    frame= 5478 fps=379 q=-0.0 size=N/A time=00:03:48.47 bitrate=N/A speed=15.8x    frame= 5682 fps=380 q=-0.0 size=N/A time=00:03:56.98 bitrate=N/A speed=15.9x    frame= 5890 fps=381 q=-0.0 size=N/A time=00:04:05.66 bitrate=N/A speed=15.9x    frame= 6128 fps=384 q=-0.0 size=N/A time=00:04:15.58 bitrate=N/A speed=  16x    frame= 6363 fps=386 q=-0.0 size=N/A time=00:04:25.39 bitrate=N/A speed=16.1x    frame= 6573 fps=386 q=-0.0 size=N/A time=00:04:34.14 bitrate=N/A speed=16.1x    frame= 6797 fps=388 q=-0.0 size=N/A time=00:04:43.49 bitrate=N/A speed=16.2x    frame= 7045 fps=391 q=-0.0 size=N/A time=00:04:53.83 bitrate=N/A speed=16.3x    frame= 7264 fps=391 q=-0.0 size=N/A time=00:05:02.96 bitrate=N/A speed=16.3x    frame= 7495 fps=393 q=-0.0 size=N/A time=00:05:12.60 bitrate=N/A speed=16.4x    frame= 7728 fps=394 q=-0.0 size=N/A time=00:05:22.32 bitrate=N/A speed=16.5x    frame= 7996 fps=397 q=-0.0 size=N/A time=00:05:33.49 bitrate=N/A speed=16.6x    frame= 8179 fps=397 q=-0.0 size=N/A time=00:05:41.13 bitrate=N/A speed=16.5x    frame= 8385 fps=397 q=-0.0 size=N/A time=00:05:49.72 bitrate=N/A speed=16.5x    frame= 8560 fps=395 q=-0.0 size=N/A time=00:05:57.02 bitrate=N/A speed=16.5x    frame= 8702 fps=392 q=-0.0 size=N/A time=00:06:02.94 bitrate=N/A speed=16.4x    frame= 8872 fps=391 q=-0.0 size=N/A time=00:06:10.03 bitrate=N/A speed=16.3x    frame= 9073 fps=391 q=-0.0 size=N/A time=00:06:18.41 bitrate=N/A speed=16.3x    frame= 9224 fps=389 q=-0.0 size=N/A time=00:06:24.71 bitrate=N/A speed=16.2x    frame= 9425 fps=389 q=-0.0 size=N/A time=00:06:33.10 bitrate=N/A speed=16.2x    frame= 9534 fps=385 q=-0.0 size=N/A time=00:06:37.64 bitrate=N/A speed=16.1x    frame= 9652 fps=382 q=-0.0 size=N/A time=00:06:42.56 bitrate=N/A speed=15.9x    frame= 9775 fps=379 q=-0.0 size=N/A time=00:06:47.69 bitrate=N/A speed=15.8x    frame= 9946 fps=378 q=-0.0 size=N/A time=00:06:54.83 bitrate=N/A speed=15.8x    frame=10200 fps=380 q=-0.0 size=N/A time=00:07:05.42 bitrate=N/A speed=15.9x    frame=10427 fps=382 q=-0.0 size=N/A time=00:07:14.89 bitrate=N/A speed=15.9x    frame=10668 fps=383 q=-0.0 size=N/A time=00:07:24.94 bitrate=N/A speed=  16x    frame=10890 fps=384 q=-0.0 size=N/A time=00:07:34.20 bitrate=N/A speed=  16x    frame=11145 fps=386 q=-0.0 size=N/A time=00:07:44.83 bitrate=N/A speed=16.1x    frame=11396 fps=388 q=-0.0 size=N/A time=00:07:55.30 bitrate=N/A speed=16.2x    frame=11662 fps=390 q=-0.0 size=N/A time=00:08:06.40 bitrate=N/A speed=16.3x    frame=11922 fps=392 q=-0.0 size=N/A time=00:08:17.24 bitrate=N/A speed=16.3x    frame=12154 fps=393 q=-0.0 size=N/A time=00:08:26.92 bitrate=N/A speed=16.4x    frame=12391 fps=394 q=-0.0 size=N/A time=00:08:36.80 bitrate=N/A speed=16.4x    frame=12660 fps=396 q=-0.0 size=N/A time=00:08:48.02 bitrate=N/A speed=16.5x    frame=12888 fps=397 q=-0.0 size=N/A time=00:08:57.53 bitrate=N/A speed=16.5x    frame=13114 fps=397 q=-0.0 size=N/A time=00:09:06.96 bitrate=N/A speed=16.6x    frame=13368 fps=399 q=-0.0 size=N/A time=00:09:17.55 bitrate=N/A speed=16.6x    frame=13622 fps=400 q=-0.0 size=N/A time=00:09:28.15 bitrate=N/A speed=16.7x    frame=13850 fps=401 q=-0.0 size=N/A time=00:09:37.66 bitrate=N/A speed=16.7x    frame=14054 fps=401 q=-0.0 size=N/A time=00:09:46.16 bitrate=N/A speed=16.7x    frame=14284 fps=401 q=-0.0 size=N/A time=00:09:55.76 bitrate=N/A speed=16.7x    frame=14551 fps=403 q=-0.0 size=N/A time=00:10:06.89 bitrate=N/A speed=16.8x    frame=14790 fps=404 q=-0.0 size=N/A time=00:10:16.86 bitrate=N/A speed=16.9x    frame=15042 fps=405 q=-0.0 size=N/A time=00:10:27.37 bitrate=N/A speed=16.9x    frame=15247 fps=405 q=-0.0 size=N/A time=00:10:35.92 bitrate=N/A speed=16.9x    frame=15487 fps=406 q=-0.0 size=N/A time=00:10:45.93 bitrate=N/A speed=16.9x    frame=15756 fps=407 q=-0.0 size=N/A time=00:10:57.15 bitrate=N/A speed=  17x    frame=16014 fps=409 q=-0.0 size=N/A time=00:11:07.91 bitrate=N/A speed=  17x    frame=16288 fps=410 q=-0.0 size=N/A time=00:11:19.34 bitrate=N/A speed=17.1x    frame=16548 fps=411 q=-0.0 size=N/A time=00:11:30.18 bitrate=N/A speed=17.2x    frame=16812 fps=413 q=-0.0 size=N/A time=00:11:41.20 bitrate=N/A speed=17.2x    frame=17053 fps=413 q=-0.0 size=N/A time=00:11:51.25 bitrate=N/A speed=17.2x    frame=17326 fps=415 q=-0.0 size=N/A time=00:12:02.63 bitrate=N/A speed=17.3x    frame=17531 fps=415 q=-0.0 size=N/A time=00:12:11.18 bitrate=N/A speed=17.3x    frame=17704 fps=414 q=-0.0 size=N/A time=00:12:18.40 bitrate=N/A speed=17.3x    frame=17846 fps=412 q=-0.0 size=N/A time=00:12:24.32 bitrate=N/A speed=17.2x    frame=18064 fps=412 q=-0.0 size=N/A time=00:12:33.41 bitrate=N/A speed=17.2x    frame=18316 fps=413 q=-0.0 size=N/A time=00:12:43.92 bitrate=N/A speed=17.2x    frame=18591 fps=414 q=-0.0 size=N/A time=00:12:55.39 bitrate=N/A speed=17.3x    frame=18834 fps=415 q=-0.0 size=N/A time=00:13:05.53 bitrate=N/A speed=17.3x    frame=19075 fps=416 q=-0.0 size=N/A time=00:13:15.58 bitrate=N/A speed=17.3x    frame=19314 fps=416 q=-0.0 size=N/A time=00:13:25.55 bitrate=N/A speed=17.4x    frame=19528 fps=416 q=-0.0 size=N/A time=00:13:34.48 bitrate=N/A speed=17.4x    frame=19689 fps=415 q=-0.0 size=N/A time=00:13:41.19 bitrate=N/A speed=17.3x    frame=19851 fps=414 q=-0.0 size=N/A time=00:13:47.95 bitrate=N/A speed=17.3x    frame=20041 fps=413 q=-0.0 size=N/A time=00:13:55.87 bitrate=N/A speed=17.2x    frame=20242 fps=413 q=-0.0 size=N/A time=00:14:04.26 bitrate=N/A speed=17.2x    frame=20482 fps=414 q=-0.0 size=N/A time=00:14:14.27 bitrate=N/A speed=17.3x    frame=20711 fps=414 q=-0.0 size=N/A time=00:14:23.82 bitrate=N/A speed=17.3x    frame=20931 fps=414 q=-0.0 size=N/A time=00:14:32.99 bitrate=N/A speed=17.3x    frame=21122 fps=414 q=-0.0 size=N/A time=00:14:40.96 bitrate=N/A speed=17.3x    frame=21353 fps=414 q=-0.0 size=N/A time=00:14:50.59 bitrate=N/A speed=17.3x    frame=21562 fps=414 q=-0.0 size=N/A time=00:14:59.31 bitrate=N/A speed=17.3x    frame=21757 fps=414 q=-0.0 size=N/A time=00:15:07.44 bitrate=N/A speed=17.3x    frame=21978 fps=414 q=-0.0 size=N/A time=00:15:16.66 bitrate=N/A speed=17.3x    frame=22167 fps=413 q=-0.0 size=N/A time=00:15:24.54 bitrate=N/A speed=17.2x    frame=22367 fps=413 q=-0.0 size=N/A time=00:15:32.89 bitrate=N/A speed=17.2x    frame=22552 fps=413 q=-0.0 size=N/A time=00:15:40.60 bitrate=N/A speed=17.2x    frame=22806 fps=413 q=-0.0 size=N/A time=00:15:51.20 bitrate=N/A speed=17.2x    frame=23067 fps=414 q=-0.0 size=N/A time=00:16:02.08 bitrate=N/A speed=17.3x    frame=23282 fps=414 q=-0.0 size=N/A time=00:16:11.05 bitrate=N/A speed=17.3x    frame=23498 fps=414 q=-0.0 size=N/A time=00:16:20.06 bitrate=N/A speed=17.3x    frame=23756 fps=415 q=-0.0 size=N/A time=00:16:30.86 bitrate=N/A speed=17.3x    frame=24010 fps=416 q=-0.0 size=N/A time=00:16:41.41 bitrate=N/A speed=17.3x    frame=24247 fps=416 q=-0.0 size=N/A time=00:16:51.30 bitrate=N/A speed=17.4x    frame=24520 fps=417 q=-0.0 size=N/A time=00:17:02.68 bitrate=N/A speed=17.4x    frame=24785 fps=418 q=-0.0 size=N/A time=00:17:13.74 bitrate=N/A speed=17.4x    frame=25028 fps=418 q=-0.0 size=N/A time=00:17:23.87 bitrate=N/A speed=17.5x    frame=25233 fps=418 q=-0.0 size=N/A time=00:17:32.42 bitrate=N/A speed=17.4x    frame=25428 fps=418 q=-0.0 size=N/A time=00:17:40.55 bitrate=N/A speed=17.4x    frame=25678 fps=419 q=-0.0 size=N/A time=00:17:50.98 bitrate=N/A speed=17.5x    frame=25924 fps=419 q=-0.0 size=N/A time=00:18:01.24 bitrate=N/A speed=17.5x    frame=26126 fps=419 q=-0.0 size=N/A time=00:18:09.67 bitrate=N/A speed=17.5x    frame=26323 fps=418 q=-0.0 size=N/A time=00:18:17.88 bitrate=N/A speed=17.5x    frame=26524 fps=418 q=-0.0 size=N/A time=00:18:26.27 bitrate=N/A speed=17.4x    frame=26719 fps=418 q=-0.0 size=N/A time=00:18:34.40 bitrate=N/A speed=17.4x    frame=26878 fps=417 q=-0.0 size=N/A time=00:18:41.03 bitrate=N/A speed=17.4x    frame=27076 fps=417 q=-0.0 size=N/A time=00:18:49.29 bitrate=N/A speed=17.4x    frame=27321 fps=417 q=-0.0 size=N/A time=00:18:59.51 bitrate=N/A speed=17.4x    frame=27552 fps=417 q=-0.0 size=N/A time=00:19:09.14 bitrate=N/A speed=17.4x    frame=27793 fps=418 q=-0.0 size=N/A time=00:19:19.19 bitrate=N/A speed=17.4x    frame=28045 fps=418 q=-0.0 size=N/A time=00:19:29.71 bitrate=N/A speed=17.5x    frame=28279 fps=419 q=-0.0 size=N/A time=00:19:39.46 bitrate=N/A speed=17.5x    frame=28537 fps=419 q=-0.0 size=N/A time=00:19:50.23 bitrate=N/A speed=17.5x    frame=28793 fps=420 q=-0.0 size=N/A time=00:20:00.90 bitrate=N/A speed=17.5x    frame=29049 fps=420 q=-0.0 size=N/A time=00:20:11.58 bitrate=N/A speed=17.5x    frame=29305 fps=421 q=-0.0 size=N/A time=00:20:22.26 bitrate=N/A speed=17.6x    frame=29580 fps=422 q=-0.0 size=N/A time=00:20:33.73 bitrate=N/A speed=17.6x    frame=29856 fps=423 q=-0.0 size=N/A time=00:20:45.24 bitrate=N/A speed=17.6x    frame=30074 fps=423 q=-0.0 size=N/A time=00:20:54.33 bitrate=N/A speed=17.6x    frame=30346 fps=423 q=-0.0 size=N/A time=00:21:05.68 bitrate=N/A speed=17.7x    frame=30572 fps=424 q=-0.0 size=N/A time=00:21:15.10 bitrate=N/A speed=17.7x    frame=30743 fps=423 q=-0.0 size=N/A time=00:21:22.23 bitrate=N/A speed=17.6x    frame=30895 fps=422 q=-0.0 size=N/A time=00:21:28.57 bitrate=N/A speed=17.6x    frame=31108 fps=422 q=-0.0 size=N/A time=00:21:37.46 bitrate=N/A speed=17.6x    frame=31344 fps=422 q=-0.0 size=N/A time=00:21:47.30 bitrate=N/A speed=17.6x    frame=31546 fps=422 q=-0.0 size=N/A time=00:21:55.73 bitrate=N/A speed=17.6x    frame=31735 fps=422 q=-0.0 size=N/A time=00:22:03.61 bitrate=N/A speed=17.6x    frame=31908 fps=421 q=-0.0 size=N/A time=00:22:10.82 bitrate=N/A speed=17.6x    frame=32057 fps=420 q=-0.0 size=N/A time=00:22:17.04 bitrate=N/A speed=17.5x    frame=32198 fps=419 q=-0.0 size=N/A time=00:22:22.92 bitrate=N/A speed=17.5x    frame=32332 fps=418 q=-0.0 size=N/A time=00:22:28.51 bitrate=N/A speed=17.4x    frame=32540 fps=418 q=-0.0 size=N/A time=00:22:37.18 bitrate=N/A speed=17.4x    frame=32725 fps=418 q=-0.0 size=N/A time=00:22:44.90 bitrate=N/A speed=17.4x    frame=32879 fps=417 q=-0.0 size=N/A time=00:22:51.32 bitrate=N/A speed=17.4x    frame=33052 fps=416 q=-0.0 size=N/A time=00:22:58.54 bitrate=N/A speed=17.4x    frame=33228 fps=416 q=-0.0 size=N/A time=00:23:05.88 bitrate=N/A speed=17.3x    frame=33440 fps=416 q=-0.0 size=N/A time=00:23:14.72 bitrate=N/A speed=17.3x    frame=33625 fps=415 q=-0.0 size=N/A time=00:23:22.44 bitrate=N/A speed=17.3x    frame=33900 fps=416 q=-0.0 size=N/A time=00:23:33.91 bitrate=N/A speed=17.4x    frame=34185 fps=417 q=-0.0 size=N/A time=00:23:45.79 bitrate=N/A speed=17.4x    frame=34469 fps=418 q=-0.0 size=N/A time=00:23:57.64 bitrate=N/A speed=17.4x    frame=34767 fps=419 q=-0.0 size=N/A time=00:24:10.07 bitrate=N/A speed=17.5x    frame=35050 fps=420 q=-0.0 size=N/A time=00:24:21.87 bitrate=N/A speed=17.5x    frame=35339 fps=420 q=-0.0 size=N/A time=00:24:33.93 bitrate=N/A speed=17.5x    [Parsed_ssim_10 @ 000001bad70cdc40] SSIM Y:0.993365 (21.781657) U:0.993865 (22.122072) V:0.993772 (22.056822) All:0.993516 (21.881810)
[out#0/null @ 000001bacb15a9c0] video:15291KiB audio:280208KiB subtitle:0KiB other streams:0KiB global headers:0KiB muxing overhead: unknown
frame=35587 fps=421 q=-0.0 Lsize=N/A time=00:24:44.27 bitrate=N/A speed=17.6x    
